<?xml version="1.0" standalone="no"?>
<!DOCTYPE svg PUBLIC "-//W3C//DTD SVG 20010904//EN"
 "http://www.w3.org/TR/2001/REC-SVG-20010904/DTD/svg10.dtd">
<svg version="1.0" xmlns="http://www.w3.org/2000/svg"
 width="1024.000000pt" height="541.000000pt" viewBox="0 0 1024.000000 541.000000"
 preserveAspectRatio="xMidYMid meet">

<g transform="translate(0.000000,541.000000) scale(0.100000,-0.100000)"
fill="#000000" stroke="none">
<path d="M1740 5228 c0 -59 83 -133 185 -164 30 -9 121 -19 225 -24 201 -10
180 -8 180 -19 0 -13 -140 -31 -250 -31 -114 0 -129 -9 -82 -51 52 -46 127
-63 289 -63 79 -1 143 -4 143 -7 0 -3 -33 -13 -72 -23 -40 -10 -81 -20 -90
-23 -31 -8 -19 -32 20 -42 20 -6 78 -13 127 -17 116 -8 161 -19 180 -47 8 -12
15 -25 15 -29 0 -4 -26 -25 -57 -47 -75 -51 -145 -121 -140 -140 5 -27 50 -16
245 63 313 125 501 179 737 211 156 22 177 32 135 70 -15 13 -42 20 -100 23
l-80 5 -29 51 c-36 65 -98 121 -170 154 -47 22 -74 27 -163 30 l-108 4 17 -33
c9 -19 19 -56 21 -84 4 -54 -13 -135 -28 -135 -6 0 -10 4 -10 9 0 5 -5 45 -11
87 -18 130 -68 203 -171 250 -83 37 -203 42 -474 19 -208 -18 -322 -15 -421
11 -67 17 -63 18 -63 -8z"/>
<path d="M3245 4686 c-138 -31 -305 -80 -400 -117 -44 -16 -81 -31 -82 -33 -2
-1 6 -20 17 -41 11 -22 20 -46 20 -54 0 -19 49 -71 67 -71 7 0 13 -4 13 -10 0
-13 -10 -13 -49 1 -33 12 -54 42 -65 94 -4 17 -14 39 -22 50 -14 19 -16 18
-100 -23 -64 -32 -84 -47 -80 -58 3 -9 6 -19 6 -24 0 -5 16 -30 36 -56 35 -45
36 -48 24 -89 -7 -23 -25 -65 -41 -93 -28 -50 -28 -50 -66 -42 -114 25 -238
31 -350 16 -246 -33 -602 -129 -753 -204 l-94 -47 -19 -55 c-33 -100 -66 -292
-86 -505 -19 -196 -22 -211 -43 -225 -113 -74 -182 -197 -144 -255 9 -13 16
-35 16 -47 0 -29 9 -42 38 -57 12 -6 22 -18 22 -25 0 -7 9 -21 20 -31 16 -15
31 -17 84 -12 127 12 185 69 186 182 1 164 36 304 130 520 29 66 63 147 75
180 21 57 25 60 61 66 22 4 42 5 47 2 4 -2 103 1 220 7 311 16 310 16 314 3 5
-15 -45 -28 -162 -43 -70 -8 -94 -15 -108 -32 -29 -35 -66 -177 -81 -310 l-13
-127 -83 -89 c-150 -164 -223 -282 -256 -412 -30 -120 1 -238 81 -308 131
-116 478 -199 940 -227 189 -11 238 -26 128 -39 -121 -14 -223 -89 -306 -224
-28 -47 -74 -110 -101 -139 -27 -30 -47 -55 -45 -56 2 -2 17 -11 32 -21 57
-35 85 -118 54 -161 -13 -16 -14 -14 -20 24 -11 85 -64 125 -270 206 -197 77
-247 71 -196 -23 28 -53 92 -106 177 -146 34 -17 61 -35 59 -40 -4 -12 -13
-12 -94 -1 -44 7 -54 5 -59 -9 -11 -29 23 -63 101 -100 42 -20 74 -40 71 -45
-3 -5 -57 -6 -120 -3 -134 6 -159 1 -174 -33 -20 -43 -14 -82 29 -193 23 -58
48 -138 54 -178 7 -40 25 -96 40 -126 46 -92 185 -218 242 -218 51 0 56 71 12
173 -33 77 -33 71 -10 247 16 116 54 193 132 264 34 30 159 120 278 200 229
154 478 342 600 453 128 117 156 186 110 279 -25 53 -148 171 -237 228 -195
126 -586 285 -814 332 -49 10 -88 23 -88 28 0 9 242 1 290 -10 22 -5 40 9 131
98 119 116 279 300 337 386 51 75 94 161 121 245 29 85 45 87 39 4 -4 -67 -44
-166 -111 -269 l-35 -55 57 -94 c118 -196 193 -283 254 -294 66 -13 186 34
448 175 81 44 157 80 168 80 12 0 21 -1 21 -2 0 -2 -9 -35 -19 -75 -21 -80
-13 -115 26 -121 29 -4 47 26 69 111 l16 67 74 0 c76 0 104 13 104 49 0 10 9
26 20 36 11 10 20 28 20 41 0 12 8 36 18 53 13 23 14 35 6 48 -7 12 -8 25 0
44 8 23 6 33 -17 66 -34 50 -34 57 6 81 69 43 117 117 117 180 0 15 -13 49
-29 74 l-29 46 48 6 c78 10 167 61 201 114 56 88 35 192 -50 249 -70 48 -161
15 -161 -57 0 -53 57 -87 100 -60 18 11 30 -5 30 -41 0 -52 -97 -109 -187
-109 -24 0 -33 4 -33 17 0 17 71 296 91 361 l11 33 81 -45 c101 -54 139 -63
172 -42 14 9 25 26 25 37 0 16 4 19 18 14 101 -45 168 -55 211 -32 48 24 49
42 4 90 -23 25 -56 70 -73 101 -17 30 -49 71 -71 90 -33 31 -46 36 -87 36 -63
0 -106 -27 -122 -77 -23 -72 -76 -109 -111 -77 -26 23 -24 34 11 67 59 56 25
147 -54 147 -61 0 -105 -76 -75 -131 7 -15 7 -24 -2 -35 -16 -20 -42 -18 -73
7 -25 20 -26 24 -24 104 3 93 -8 115 -69 141 -54 23 -88 16 -187 -36 -52 -27
-104 -50 -114 -50 -11 0 -30 -8 -43 -19 l-23 -18 20 -34 c25 -43 95 -78 167
-86 32 -3 57 -8 57 -10 0 -2 -5 -13 -11 -24 -15 -29 12 -66 58 -78 21 -6 80
-11 132 -11 92 0 93 0 87 -22 -3 -13 -27 -104 -53 -203 -26 -99 -48 -181 -49
-183 -7 -11 -88 44 -123 84 -45 51 -53 92 -25 132 19 28 37 28 49 0 14 -33 70
-37 101 -7 67 63 -16 164 -120 145 -72 -14 -138 -82 -151 -155 -13 -77 36
-174 115 -229 22 -15 39 -29 40 -32 0 -3 -17 -14 -37 -25 -56 -31 -76 -66 -81
-138 -3 -52 0 -70 23 -111 l26 -49 -31 -26 c-18 -14 -50 -59 -73 -100 -40 -70
-45 -75 -96 -93 -72 -24 -282 -68 -326 -68 -19 0 -35 4 -35 8 0 4 -27 54 -60
110 -54 90 -60 107 -60 156 0 79 -25 197 -54 253 -28 57 -83 114 -143 150 -51
30 -52 39 -17 148 14 44 27 86 29 93 3 9 20 5 62 -14 65 -29 172 -42 215 -25
34 13 45 50 30 99 -10 32 -9 39 9 58 19 20 19 23 4 38 -15 15 -14 17 10 26 23
9 26 14 20 40 -6 26 -4 30 13 30 27 0 52 26 52 53 0 13 -15 54 -34 93 -23 48
-32 79 -29 100 6 41 -21 104 -44 103 -10 0 -63 -11 -118 -23z m56 -126 c26
-15 24 -29 -8 -41 -53 -20 -100 14 -55 40 22 13 39 13 63 1z m743 -939 c-10
-39 -23 -70 -29 -68 -20 6 -49 79 -38 96 10 17 74 53 81 46 2 -2 -4 -35 -14
-74z m147 -13 c12 -29 11 -32 -19 -59 -52 -47 -63 -40 -46 29 22 86 22 86 38
73 8 -7 20 -26 27 -43z m-231 -356 c1 8 5 7 14 -5 7 -9 20 -15 28 -12 8 3 27
-1 42 -8 l27 -15 -37 -6 c-32 -6 -36 -10 -31 -32 3 -16 0 -24 -9 -24 -7 0 -20
-12 -28 -27 l-15 -28 -1 29 c0 21 -4 27 -15 22 -17 -6 -20 5 -4 21 7 7 3 25
-15 61 -14 28 -26 54 -26 58 0 3 16 -6 35 -20 22 -17 35 -22 35 -14z"/>
<path d="M4640 2778 l0 -598 105 0 105 0 0 255 0 255 130 0 130 0 0 -255 0
-255 105 0 105 0 0 599 0 599 -105 -1 -105 -2 0 -242 0 -243 -130 0 -130 0 0
243 0 242 -105 0 -105 0 0 -597z"/>
<path d="M5494 3371 c-2 -2 -4 -271 -4 -598 l0 -593 280 0 280 0 0 100 0 100
-170 0 -170 0 0 155 0 155 135 0 135 0 0 95 0 95 -135 0 -135 0 0 150 0 150
165 0 165 0 0 98 0 97 -271 0 c-149 0 -273 -2 -275 -4z"/>
<path d="M6200 2781 l0 -601 105 0 105 0 0 236 0 235 41 -3 41 -3 93 -230 93
-230 116 -3 c64 -1 116 0 116 3 0 4 -47 117 -105 252 -58 135 -104 247 -103
248 2 1 24 13 49 28 93 53 134 159 126 326 -3 61 -12 126 -21 152 -23 64 -77
123 -139 153 -50 24 -62 26 -284 32 l-233 6 0 -601z m390 390 c46 -32 62 -77
57 -166 -6 -137 -42 -175 -167 -175 l-70 0 0 184 0 183 78 -4 c52 -3 85 -10
102 -22z"/>
<path d="M7040 2778 l0 -598 95 0 96 0 -3 415 c-2 228 -1 415 2 415 3 0 53
-185 111 -411 l105 -412 54 0 55 0 62 234 c34 129 83 315 110 414 l48 180 3
-417 2 -418 95 0 95 0 0 598 0 597 -137 -2 -138 -2 -86 -338 c-47 -186 -89
-351 -93 -368 -7 -24 -25 38 -95 325 -48 195 -89 361 -92 368 -3 10 -40 14
-147 15 l-142 2 0 -597z"/>
<path d="M8144 3371 c-2 -2 -4 -271 -4 -598 l0 -593 276 2 275 3 2 98 2 97
-167 0 -168 0 0 155 0 155 135 0 135 0 0 95 0 95 -135 0 -135 0 0 150 0 150
165 0 166 0 -3 98 -3 97 -268 0 c-148 0 -271 -2 -273 -4z"/>
<path d="M8784 3365 c21 -44 226 -580 226 -589 0 -7 -46 -125 -103 -262 -57
-137 -111 -268 -120 -291 l-17 -43 118 0 117 0 58 173 c91 268 71 265 158 29
l74 -202 113 0 c62 0 112 4 112 9 0 5 -52 139 -115 298 -63 158 -115 295 -115
302 0 11 120 331 216 576 3 7 -39 11 -116 11 l-120 1 -9 -31 c-5 -17 -33 -107
-62 -200 l-53 -168 -28 83 c-15 46 -43 136 -63 199 l-35 115 -120 0 c-77 0
-119 -4 -116 -10z"/>
<path d="M1581 2249 c-5 -13 -25 -64 -44 -112 -43 -106 -59 -160 -87 -292 -29
-136 -49 -202 -65 -218 -7 -8 -48 -26 -92 -42 -159 -57 -242 -138 -263 -255
-15 -88 -59 -227 -76 -241 -26 -21 -26 15 1 115 41 161 35 199 -59 344 -26 39
-63 106 -82 147 -20 40 -42 79 -49 85 -26 22 -49 7 -62 -40 -20 -77 -15 -129
22 -234 19 -55 32 -102 30 -104 -9 -9 -47 32 -66 71 -23 44 -36 47 -49 11 -25
-64 -5 -136 56 -203 l37 -42 -44 3 c-59 4 -62 -18 -11 -74 49 -53 62 -78 62
-116 0 -48 -45 -78 -137 -93 -140 -23 -160 -68 -129 -285 8 -60 20 -147 26
-194 14 -111 34 -171 68 -203 39 -37 73 -47 161 -47 63 0 81 4 94 18 29 32 20
58 -33 104 -61 53 -62 67 -16 186 19 48 39 105 45 127 23 87 94 152 316 290
131 82 212 138 320 221 44 33 114 83 155 109 46 29 113 87 172 149 l97 101
-33 35 c-81 84 -102 142 -70 189 15 21 22 23 83 19 40 -3 83 -13 109 -25 l43
-21 54 76 c58 82 110 180 121 224 5 23 2 28 -18 32 -264 51 -350 75 -463 132
-38 20 -80 45 -92 56 l-22 21 -10 -24z"/>
</g>
</svg>
